<?xml version="1.0" standalone="no"?>
<!DOCTYPE svg PUBLIC "-//W3C//DTD SVG 20010904//EN"
 "http://www.w3.org/TR/2001/REC-SVG-20010904/DTD/svg10.dtd">
<svg version="1.0" xmlns="http://www.w3.org/2000/svg"
 width="700.000000pt" height="700.000000pt" viewBox="0 0 700.000000 700.000000"
 preserveAspectRatio="xMidYMid meet">
<metadata>
Created by potrace 1.14, written by Peter Selinger 2001-2017
</metadata>
<g transform="translate(0.000000,700.000000) scale(0.100000,-0.100000)"
fill="#000000" stroke="none">
<path d="M1330 6558 c-215 -24 -387 -163 -456 -368 -28 -83 -26 -263 5 -350
54 -155 164 -268 314 -324 207 -79 441 -31 593 121 101 102 153 235 152 391
-1 92 -14 152 -54 238 -90 196 -322 318 -554 292z"/>
<path d="M5425 6532 c-99 -35 -155 -70 -221 -139 -213 -221 -183 -620 60 -801
48 -36 115 -71 163 -86 88 -27 231 -33 314 -12 243 62 397 255 405 506 5 154
-41 288 -135 387 -65 70 -104 97 -196 134 -71 29 -93 33 -195 36 -105 2 -122
0 -195 -25z"/>
<path d="M3204 5725 c-124 -16 -160 -22 -244 -40 -14 -3 -34 -7 -45 -9 -57
-11 -163 -42 -273 -79 -119 -40 -170 -70 -173 -103 -6 -62 1 -86 33 -116 28
-26 37 -29 77 -25 26 3 93 22 151 42 160 56 355 98 505 111 39 3 81 7 95 10
32 5 302 5 360 -1 110 -11 228 -27 260 -35 19 -5 51 -12 70 -15 53 -9 244 -64
317 -91 75 -28 105 -30 143 -7 65 38 71 124 13 174 -25 23 -174 74 -328 114
-112 29 -182 43 -355 71 -78 12 -507 11 -606 -1z"/>
<path d="M710 5494 c-95 -48 -169 -122 -214 -216 -44 -93 -52 -141 -50 -308 1
-149 11 -186 62 -239 64 -67 26 -64 872 -66 421 0 780 2 799 6 54 12 112 59
140 114 24 46 26 58 25 185 0 174 -8 220 -49 306 -52 108 -149 198 -258 239
l-47 18 -63 -60 c-158 -151 -336 -221 -547 -217 -194 3 -366 74 -510 211 -37
35 -72 63 -77 63 -6 0 -43 -16 -83 -36z"/>
<path d="M4955 5512 c-139 -60 -238 -169 -281 -312 -13 -40 -17 -96 -18 -210
0 -143 1 -159 23 -203 25 -51 71 -93 124 -111 24 -8 254 -11 813 -11 l779 0
45 27 c98 58 117 109 114 314 -2 160 -15 217 -68 308 -51 87 -143 164 -240
201 l-46 18 -66 -62 c-129 -121 -245 -177 -424 -204 -91 -14 -231 -8 -298 14
-162 52 -263 111 -357 208 -44 46 -45 46 -100 23z"/>
<path d="M3407 4924 c-1 -1 -36 -5 -77 -8 -192 -15 -414 -79 -605 -174 -77
-38 -240 -135 -255 -152 -3 -3 -36 -30 -75 -61 -209 -167 -412 -437 -505 -669
-12 -30 -26 -64 -31 -75 -33 -77 -77 -253 -97 -390 -9 -66 -9 -313 1 -397 73
-649 440 -1164 1007 -1414 160 -70 356 -123 530 -141 81 -9 324 -9 408 0 281
30 604 153 831 315 123 87 289 253 373 372 117 165 211 364 263 553 27 101 28
106 45 197 19 106 21 126 24 290 7 285 -46 516 -180 785 -115 232 -277 431
-484 596 -49 39 -196 139 -204 139 -3 0 -27 13 -53 28 -56 33 -192 92 -278
121 -84 28 -276 68 -365 77 -74 7 -268 12 -273 8z m-566 -1252 c34 -30 44 -77
27 -122 -5 -14 -82 -97 -171 -186 -89 -88 -168 -168 -175 -177 -12 -14 8 -38
167 -197 100 -99 182 -188 182 -198 7 -74 -17 -120 -72 -138 -27 -9 -41 -9
-67 2 -19 8 -128 108 -257 238 -235 236 -250 256 -227 316 9 25 436 460 470
480 34 19 90 11 123 -18z m842 -12 c33 -37 35 -72 8 -173 -11 -40 -23 -88 -26
-106 -3 -19 -10 -42 -16 -52 -5 -11 -8 -19 -5 -19 3 0 -4 -33 -15 -72 -11 -40
-24 -91 -29 -113 -5 -22 -11 -49 -13 -60 -90 -356 -91 -360 -118 -387 -62 -62
-179 -17 -179 69 0 40 206 877 222 903 37 58 123 63 171 10z m618 13 c71 -60
442 -438 449 -459 5 -12 7 -35 5 -51 -2 -15 -4 -32 -4 -36 -1 -13 -443 -452
-468 -465 -91 -49 -194 49 -147 139 8 17 92 107 186 200 152 150 169 171 157
186 -8 9 -89 91 -181 183 -93 92 -168 174 -169 181 0 8 -2 23 -4 34 -6 29 21
78 53 97 41 26 85 22 123 -9z"/>
<path d="M1228 4426 c-64 -42 -227 -404 -283 -626 -7 -30 -20 -80 -28 -110
-14 -52 -19 -79 -32 -160 -3 -19 -7 -46 -10 -60 -15 -77 -20 -191 -19 -410 0
-205 4 -266 22 -375 13 -71 29 -140 37 -152 58 -87 201 -43 197 62 -1 30 -5
56 -16 110 -4 20 -15 115 -22 189 -5 60 -6 345 0 386 2 19 7 62 11 95 28 269
119 566 256 836 59 117 63 156 20 200 -16 16 -38 29 -48 30 -10 0 -26 2 -35 4
-10 2 -32 -7 -50 -19z"/>
<path d="M5679 4436 c-40 -17 -61 -43 -66 -85 -5 -33 3 -56 51 -151 60 -118
134 -298 161 -396 26 -91 55 -206 60 -239 3 -16 10 -55 15 -85 24 -135 30
-224 30 -405 -1 -82 -3 -163 -4 -180 -2 -16 -7 -61 -11 -100 -4 -38 -9 -72
-10 -75 -2 -4 -16 -100 -17 -120 -3 -53 36 -105 84 -113 41 -6 92 14 111 45
19 29 33 103 56 293 11 95 12 423 1 515 -16 132 -20 164 -25 190 -3 14 -7 40
-10 58 -14 83 -78 309 -120 424 -59 161 -172 386 -205 410 -33 23 -69 28 -101
14z"/>
<path d="M5548 2349 c-296 -32 -504 -274 -485 -564 8 -108 14 -137 50 -215 91
-197 287 -309 522 -298 249 13 437 164 497 402 28 109 20 240 -19 339 -75 186
-238 312 -433 333 -25 3 -49 6 -55 7 -5 2 -40 0 -77 -4z"/>
<path d="M1299 2346 c-2 -2 -17 -6 -34 -9 -16 -2 -59 -17 -95 -32 -206 -86
-330 -288 -317 -520 13 -248 159 -432 394 -496 64 -18 96 -21 178 -16 199 10
345 95 440 258 102 174 98 409 -11 580 -65 104 -189 191 -319 224 -53 13 -225
21 -236 11z"/>
<path d="M748 1305 c-95 -35 -201 -133 -249 -230 -43 -87 -56 -168 -53 -325 2
-174 24 -223 119 -273 40 -21 44 -21 830 -22 787 0 790 0 830 22 96 51 118
101 120 273 3 215 -30 324 -128 432 -44 49 -135 109 -194 129 -34 11 -36 10
-98 -48 -82 -75 -107 -94 -180 -130 -121 -61 -216 -83 -355 -83 -87 0 -98 1
-185 21 -114 26 -273 118 -360 208 -43 45 -44 45 -97 26z"/>
<path d="M4976 1313 c-35 -9 -138 -75 -176 -113 -42 -42 -100 -123 -100 -139
0 -6 -5 -19 -10 -29 -25 -42 -36 -128 -35 -269 1 -121 5 -154 19 -183 25 -49
54 -78 101 -103 40 -21 45 -21 824 -22 742 -1 785 0 825 18 52 23 82 52 109
102 19 36 21 57 20 200 0 223 -30 311 -145 426 -46 46 -171 119 -203 119 -6 0
-29 -18 -50 -41 -94 -97 -263 -191 -386 -214 -13 -3 -37 -8 -53 -11 -54 -12
-200 -6 -270 10 -151 36 -265 97 -371 198 -33 32 -64 57 -70 57 -5 -1 -18 -3
-29 -6z"/>
<path d="M2602 760 c-54 -53 -40 -139 28 -172 72 -35 355 -106 490 -122 25 -4
55 -8 67 -10 36 -7 224 -18 324 -18 236 -1 480 35 735 107 145 42 179 65 184
126 4 46 0 58 -31 88 -39 39 -77 40 -185 6 -85 -27 -271 -70 -344 -80 -25 -3
-61 -8 -80 -10 -114 -16 -374 -21 -485 -10 -88 8 -149 16 -205 26 -30 5 -68
12 -85 14 -16 3 -88 22 -160 42 -71 20 -151 38 -176 41 -41 3 -49 0 -77 -28z"/>
</g>
</svg>
