<svg xmlns="http://www.w3.org/2000/svg" viewBox="0 0 64 64"><path d="M32 18.968A16.03423 16.03423 0 0015.987 34.981c.88311 21.24278 31.14608 21.23659 32.026-.00012A16.03425 16.03425 0 0032 18.968zM26.0252 38.09352a1.01388 1.01388 0 01-.7106 1.71141 1.02526 1.02526 0 01-.71059-.29027L20.7809 35.69155a1.00885 1.00885 0 010-1.42114l3.82311-3.8231A1.00493 1.00493 0 1126.0252 31.8685L22.90261 34.981zm7.89636-6.69543L32.02005 39.0443a1.00007 1.00007 0 11-1.94158-.48043L31.98 30.91772A1.00021 1.00021 0 0133.92156 31.39809zm9.29757 4.29346L39.396 39.51466a1.02526 1.02526 0 01-.71059.29027 1.0129 1.0129 0 01-.7106-1.71141L41.09742 34.981 37.97483 31.8685a1.00519 1.00519 0 011.42124-1.42114l3.82306 3.823A1.00885 1.00885 0 0143.21913 35.69155zM17.75849 8.95992c-.2053-6.613-9.80225-6.61339-10.00811-.00012C7.97071 15.57209 17.53669 15.57478 17.75849 8.95992z"/><path d="M6.029 21.35H19.47986a1.96479 1.96479 0 001.96161-1.96161V17.657a4.39231 4.39231 0 00-3.29272-4.24341 6.97713 6.97713 0 01-10.7887 0l-.31025.10006A4.3612 4.3612 0 004.0674 17.657v1.73139A1.96474 1.96474 0 006.029 21.35zM17.75849 47.45108c-.20537-6.613-9.80219-6.61339-10.00811-.00012C7.97065 54.06325 17.53675 54.06594 17.75849 47.45108z"/><path d="M18.459 52.00482l-.31025-.10012a7.019 7.019 0 01-10.78871-.00011 4.39262 4.39262 0 00-3.29263 4.24356l0 1.73143A1.96688 1.96688 0 006.029 59.85115H19.47986a1.96693 1.96693 0 001.96161-1.97157V56.14813A4.36112 4.36112 0 0018.459 52.00482zM46.24154 47.451c.22033 6.61223 9.78643 6.615 10.00811.00012C56.04428 40.83805 46.44745 40.83769 46.24154 47.451z"/><path d="M56.95023 52.00482L56.64 51.9047a7.019 7.019 0 01-10.78871-.00011 4.3927 4.3927 0 00-3.2927 4.24356v1.73143a1.96693 1.96693 0 001.96161 1.97157H57.97108a1.96688 1.96688 0 001.96155-1.97157V56.14813A4.36106 4.36106 0 0056.95023 52.00482zM56.24965 8.95992c-.20531-6.613-9.80226-6.61339-10.00811-.00012C46.46193 15.572 56.02791 15.57478 56.24965 8.95992z"/><path d="M56.95023 13.5136L56.64 13.41354a7.019 7.019 0 01-10.78871-.00011 4.39264 4.39264 0 00-3.2927 4.24356v1.73137A1.96479 1.96479 0 0044.52017 21.35H57.97108a1.96474 1.96474 0 001.96155-1.96161V17.657A4.3612 4.3612 0 0056.95023 13.5136zM12.2252 23.48048a.99794.99794 0 00-1.36341.38019 24.34929 24.34929 0 00-2.65254 16.618 1.00112 1.00112 0 001.96447-.387 22.35351 22.35351 0 012.43168-15.2477A1.00036 1.00036 0 0012.2252 23.48048zM39.22755 56.79459a22.37943 22.37943 0 01-14.45507 0 1.00072 1.00072 0 00-.65672 1.89022 24.28966 24.28966 0 0015.76857 0A1.00072 1.00072 0 0039.22755 56.79459zM54.615 41.26736a1.00446 1.00446 0 001.17576-.78873 24.34929 24.34929 0 00-2.65254-16.618 1.001 1.001 0 00-1.74356.98328 22.35345 22.35345 0 012.4316 15.24765A1.00179 1.00179 0 0054.615 41.26736zM23.89286 15.03418a22.33649 22.33649 0 0116.21431 0 1.00132 1.00132 0 00.73881-1.8609 24.24649 24.24649 0 00-17.692 0 1.0011 1.0011 0 00.73888 1.86088z"/></svg>